<svg id="Chat" xmlns="http://www.w3.org/2000/svg" width="46.218" height="46.219" viewBox="0 0 46.218 46.219">
  <path id="Path_1047" data-name="Path 1047" d="M31.81,3.238a23.163,23.163,0,0,0-12.727,0l-.3.087A22.6,22.6,0,0,0,3.551,32.2l1.314,3.941a.963.963,0,0,1,.021.538L2.724,45.323a2.4,2.4,0,0,0,2.91,2.91l8.648-2.162a.964.964,0,0,1,.538.021l3.941,1.314A22.6,22.6,0,0,0,47.632,32.177l.087-.3A23.164,23.164,0,0,0,31.81,3.238ZM20.4,7.852a18.365,18.365,0,0,1,22.7,22.7l-.087.3a17.8,17.8,0,0,1-22.74,11.995l-2.07-.69a33.392,33.392,0,0,1-5.435-3.731l0,0q-.129-.116-.249-.229-.165-.155-.317-.309a15.079,15.079,0,0,1-2.571-3.675c-.253-.453-.524-.938-.839-1.469L8.1,30.679A17.8,17.8,0,0,1,20.1,7.938Z" transform="translate(-2.392 -2.346)" fill-rule="evenodd"/>
  <path id="Path_1048" data-name="Path 1048" d="M9.6,17.7A3.6,3.6,0,1,0,6,14.1,3.6,3.6,0,0,0,9.6,17.7Z" transform="translate(2.658 9.064)" fill="#44a0a9"/>
  <path id="Path_1049" data-name="Path 1049" d="M17.7,14.1a3.6,3.6,0,1,1-3.6-3.6A3.6,3.6,0,0,1,17.7,14.1Z" transform="translate(8.956 9.064)" fill="#44a0a9"/>
  <path id="Path_1050" data-name="Path 1050" d="M18.6,17.7A3.6,3.6,0,1,0,15,14.1,3.6,3.6,0,0,0,18.6,17.7Z" transform="translate(15.253 9.064)" fill="#44a0a9"/>
</svg>
