<svg xmlns="http://www.w3.org/2000/svg" width="47.219" height="47.241" viewBox="0 0 47.219 47.241">
  <g id="WhatsApp" transform="translate(0.501 0.5)">
    <path id="call-chat-svgrepo-com" d="M23.611,4.475a9.141,9.141,0,0,0-8.184,13.2,3.367,3.367,0,0,1,.258,2.37l-.544,2.033,2.033-.544a3.368,3.368,0,0,1,2.37.258,9.137,9.137,0,1,0,4.067-17.32ZM11.25,13.611a12.354,12.354,0,1,1,6.856,11.07.271.271,0,0,0-.085-.028h-.015l-2.39.64a3.01,3.01,0,0,1-3.685-3.685l.64-2.391a.079.079,0,0,0,0-.016.271.271,0,0,0-.028-.085A12.316,12.316,0,0,1,11.25,13.611Z" transform="translate(10.247 -1.25)" fill="#44a0a9" stroke="#44a0a9" stroke-width="1" fill-rule="evenodd"/>
    <path id="call-chat-svgrepo-com-2" data-name="call-chat-svgrepo-com" d="M6.555,5.061a5.917,5.917,0,0,1,9.175.827L18.44,9.722a6.42,6.42,0,0,1-.484,8.082l-.526.554,0,.012a1.688,1.688,0,0,0-.029.8c.143.979.9,2.969,3.969,6.2s4.946,4.005,5.811,4.146a1.306,1.306,0,0,0,.631-.014l.878-.925a5.813,5.813,0,0,1,7.168-1.008l4.107,2.364a6.452,6.452,0,0,1,1.522,9.916l-3.054,3.215a6.205,6.205,0,0,1-3.859,2.019c-3.921.387-13-.117-22.525-10.142C3.16,25.587,1.472,17.451,1.259,13.475A6.566,6.566,0,0,1,3.181,8.614L4.35,9.724,3.181,8.614ZM13.1,7.749a2.7,2.7,0,0,0-4.2-.467L5.519,10.834A3.357,3.357,0,0,0,4.479,13.3c.174,3.246,1.572,10.646,9.9,19.418,8.737,9.2,16.786,9.458,19.871,9.154a3.008,3.008,0,0,0,1.838-1.03l3.054-3.215a3.23,3.23,0,0,0-.793-4.9l-4.107-2.364a2.589,2.589,0,0,0-3.222.434l-.979,1.031-1.169-1.11c1.169,1.11,1.167,1.112,1.166,1.114l0,0-.006.006-.014.014-.031.03c-.022.021-.048.045-.077.071-.058.051-.129.108-.215.169A3.274,3.274,0,0,1,29,32.5a4.407,4.407,0,0,1-2.345.2c-1.887-.306-4.359-1.661-7.633-5.108s-4.54-6.036-4.821-7.954a4.854,4.854,0,0,1,.181-2.348,3.421,3.421,0,0,1,.338-.7c.056-.088.11-.161.157-.221.024-.03.046-.056.066-.079l.029-.032.013-.014L15,16.238l0,0s0,0,1.172,1.107L15,16.232l.617-.649a3.2,3.2,0,0,0,.189-4Z" transform="translate(-1.25 1.049)" stroke="#000" stroke-width="1" fill-rule="evenodd"/>
  </g>
</svg>
