<svg xmlns="http://www.w3.org/2000/svg" width="43.341" height="44.851" viewBox="0 0 43.341 44.851">
  <g id="whatsapp-svgrepo-com" transform="translate(-1 -1)">
    <path id="Path_1079" data-name="Path 1079" d="M6.028,9.952c.225-1.78,2.539-4.2,4.375-3.932l0,0c1.787.34,3.2,3.415,4,4.8a1.951,1.951,0,0,1-.329,2.449c-.711.573-1.823,1.364-1.59,2.158.415,1.412,5.34,6.337,7.762,7.737.917.53,1.582-.868,2.15-1.584a1.919,1.919,0,0,1,2.431-.336,27.12,27.12,0,0,1,4.206,3.022,1.664,1.664,0,0,1,.352,2.2c-.794,1.5-3.09,3.468-4.757,3.068-2.911-.7-14.685-5.264-18.467-18.487A1.95,1.95,0,0,1,6.028,9.952Z" transform="translate(4.85 4.85)" fill="#44a0a9"/>
    <path id="Path_1080" data-name="Path 1080" d="M22.671,44.341a15.953,15.953,0,0,1-5.91-.985L12.612,45.43a3.94,3.94,0,0,1-5.7-3.524v-4.46C2.668,33.49,1,28.929,1,22.671A21.671,21.671,0,1,1,22.671,44.341ZM10.85,35.733,9.6,34.564C6.3,31.491,4.94,28.055,4.94,22.671A17.73,17.73,0,1,1,22.671,40.4a12.113,12.113,0,0,1-4.657-.781l-1.551-.52L10.85,41.906Z" transform="translate(0 0)" fill-rule="evenodd"/>
  </g>
</svg>
